<?xml version="1.0" encoding="UTF-8"?>
<svg version="1.1" viewBox="0 0 2000 2000" width="1280" height="1280" xmlns="http://www.w3.org/2000/svg">
<path transform="translate(0)" d="m0 0h2e3v2e3h-2e3z" fill="#FEFDFC"/>
<path transform="translate(839,711)" d="m0 0h16l14 4 11 7 9 11 5 10 3 12v132l7-4 10-8 19-11 19-9 19-6 20-4 8-1h33l27 4 21 6 19 8 19 10 17 12 13 11 17 17 13 18 8 13 8 15 8 20 6 19 5 26 2 20v23l-4 28-5 20-6 18-8 19-12 21-12 16-13 15-13 12-13 10-21 13-17 8-21 7-21 5-12 2-13 1h-16l-22-2-19-4-17-5-17-7-20-11-17-13-12-11-9-9-2-1-3 12-7 21-6 12-9 10-8 5-10 3h-8l-10-2-8-5-4-6-2-7-1-8v-474l3-16 7-13 9-9 12-7z" fill="#8E5BFE"/>
<path transform="translate(996,940)" d="m0 0h17l18 3 15 5 12 6 12 8 10 8v2l3 1 11 14 7 11 6 14 5 18 2 14v20l-4 19-5 15-9 17-13 16-12 11-14 9-14 7-13 4-11 2h-24l-19-4-16-6-15-9-10-8-11-11-11-15-7-14-6-18-3-17v-20l3-18 6-17 8-15 9-12 11-12 13-10 18-10 15-5z" fill="#FEFDFC"/>
<path transform="translate(838,590)" d="m0 0h17l14 4 10 6 7 7 6 9 5 14v17l-3 10-4 8-8 10-14 9-12 4h-18l-12-4-10-6-6-5-7-10-4-10-2-10v-10l3-13 6-11 8-8 13-8z" fill="#8E5BFE"/>
</svg>
